{
    "asset" : {
        "generator" : "Khronos glTF Blender I/O v1.2.75",
        "version" : "2.0"
    },
    "scene" : 0,
    "scenes" : [
        {
            "name" : "Scene",
            "nodes" : [
                0
            ]
        }
    ],
    "nodes" : [
        {
            "mesh" : 0,
            "name" : "\u30cc\u30eb",
            "rotation" : [
                0.7071068286895752,
                0,
                0,
                0.7071067094802856
            ],
            "scale" : [
                0.009999999776482582,
                0.009999999776482582,
                0.009999999776482582
            ],
            "translation" : [
                -0.2849999964237213,
                0.18575000762939453,
                0
            ]
        }
    ],
    "materials" : [
        {
            "doubleSided" : true,
            "emissiveFactor" : [
                0,
                0,
                0
            ],
            "name" : "Mat",
            "pbrMetallicRoughness" : {
                "baseColorFactor" : [
                    0,
                    0.6000000238418579,
                    0.6000000238418579,
                    1
                ],
                "metallicFactor" : 0,
                "roughnessFactor" : 0.4343145787715912
            }
        },
        {
            "doubleSided" : true,
            "emissiveFactor" : [
                0,
                0,
                0
            ],
            "name" : "Mat.2",
            "pbrMetallicRoughness" : {
                "baseColorFactor" : [
                    0.800000011920929,
                    0.800000011920929,
                    0.800000011920929,
                    1
                ],
                "metallicFactor" : 0,
                "roughnessFactor" : 0.4343145787715912
            }
        },
        {
            "doubleSided" : true,
            "emissiveFactor" : [
                0,
                0,
                0
            ],
            "name" : "Mat.1",
            "pbrMetallicRoughness" : {
                "baseColorFactor" : [
                    0.658823549747467,
                    0.658823549747467,
                    0.658823549747467,
                    1
                ],
                "metallicFactor" : 0,
                "roughnessFactor" : 0.4343145787715912
            }
        },
        {
            "doubleSided" : true,
            "emissiveFactor" : [
                0,
                0,
                0
            ],
            "name" : "Mat.3",
            "pbrMetallicRoughness" : {
                "baseColorFactor" : [
                    0.20000000298023224,
                    0.20000000298023224,
                    0.20000000298023224,
                    1
                ],
                "metallicFactor" : 0,
                "roughnessFactor" : 0.4343145787715912
            }
        },
        {
            "doubleSided" : true,
            "emissiveFactor" : [
                0,
                0,
                0
            ],
            "name" : "Mat.4",
            "pbrMetallicRoughness" : {
                "baseColorFactor" : [
                    0.8299999833106995,
                    0.6639999747276306,
                    0,
                    1
                ],
                "metallicFactor" : 0,
                "roughnessFactor" : 0.4343145787715912
            }
        }
    ],
    "meshes" : [
        {
            "name" : "\u30e1\u30c3\u30b7\u30e5",
            "primitives" : [
                {
                    "attributes" : {
                        "POSITION" : 0,
                        "NORMAL" : 1,
                        "TEXCOORD_0" : 2
                    },
                    "indices" : 3,
                    "material" : 0
                },
                {
                    "attributes" : {
                        "POSITION" : 4,
                        "NORMAL" : 5,
                        "TEXCOORD_0" : 6
                    },
                    "indices" : 7,
                    "material" : 1
                },
                {
                    "attributes" : {
                        "POSITION" : 8,
                        "NORMAL" : 9,
                        "TEXCOORD_0" : 10
                    },
                    "indices" : 11,
                    "material" : 2
                },
                {
                    "attributes" : {
                        "POSITION" : 12,
                        "NORMAL" : 13,
                        "TEXCOORD_0" : 14
                    },
                    "indices" : 15,
                    "material" : 3
                },
                {
                    "attributes" : {
                        "POSITION" : 16,
                        "NORMAL" : 17,
                        "TEXCOORD_0" : 18
                    },
                    "indices" : 19,
                    "material" : 4
                }
            ]
        }
    ],
    "accessors" : [
        {
            "bufferView" : 0,
            "componentType" : 5126,
            "count" : 7093,
            "max" : [
                11.399999618530273,
                12.700000762939453,
                -7.704998970031738
            ],
            "min" : [
                -38.70000076293945,
                -12.69999885559082,
                -112.7249984741211
            ],
            "type" : "VEC3"
        },
        {
            "bufferView" : 1,
            "componentType" : 5126,
            "count" : 7093,
            "type" : "VEC3"
        },
        {
            "bufferView" : 2,
            "componentType" : 5126,
            "count" : 7093,
            "type" : "VEC2"
        },
        {
            "bufferView" : 3,
            "componentType" : 5123,
            "count" : 19332,
            "type" : "SCALAR"
        },
        {
            "bufferView" : 4,
            "componentType" : 5126,
            "count" : 476,
            "max" : [
                17.799999237060547,
                19.200000762939453,
                13.875
            ],
            "min" : [
                9.800000190734863,
                -19.200000762939453,
                -135.02499389648438
            ],
            "type" : "VEC3"
        },
        {
            "bufferView" : 5,
            "componentType" : 5126,
            "count" : 476,
            "type" : "VEC3"
        },
        {
            "bufferView" : 6,
            "componentType" : 5126,
            "count" : 476,
            "type" : "VEC2"
        },
        {
            "bufferView" : 7,
            "componentType" : 5123,
            "count" : 1056,
            "type" : "SCALAR"
        },
        {
            "bufferView" : 8,
            "componentType" : 5126,
            "count" : 4970,
            "max" : [
                39.20000076293945,
                22,
                18.575000762939453
            ],
            "min" : [
                -40.6069450378418,
                -22,
                -138.02499389648438
            ],
            "type" : "VEC3"
        },
        {
            "bufferView" : 9,
            "componentType" : 5126,
            "count" : 4970,
            "type" : "VEC3"
        },
        {
            "bufferView" : 10,
            "componentType" : 5126,
            "count" : 4970,
            "type" : "VEC2"
        },
        {
            "bufferView" : 11,
            "componentType" : 5123,
            "count" : 13578,
            "type" : "SCALAR"
        },
        {
            "bufferView" : 12,
            "componentType" : 5126,
            "count" : 1927,
            "max" : [
                12.100000381469727,
                16.700000762939453,
                11.175000190734863
            ],
            "min" : [
                -31.995941162109375,
                -16.700000762939453,
                -134.72500610351562
            ],
            "type" : "VEC3"
        },
        {
            "bufferView" : 13,
            "componentType" : 5126,
            "count" : 1927,
            "type" : "VEC3"
        },
        {
            "bufferView" : 14,
            "componentType" : 5126,
            "count" : 1927,
            "type" : "VEC2"
        },
        {
            "bufferView" : 15,
            "componentType" : 5123,
            "count" : 4992,
            "type" : "SCALAR"
        },
        {
            "bufferView" : 16,
            "componentType" : 5126,
            "count" : 455,
            "max" : [
                -24.700000762939453,
                3.650000810623169,
                -7.604998588562012
            ],
            "min" : [
                -32.150001525878906,
                -3.6499996185302734,
                -14.304998397827148
            ],
            "type" : "VEC3"
        },
        {
            "bufferView" : 17,
            "componentType" : 5126,
            "count" : 455,
            "type" : "VEC3"
        },
        {
            "bufferView" : 18,
            "componentType" : 5126,
            "count" : 455,
            "type" : "VEC2"
        },
        {
            "bufferView" : 19,
            "componentType" : 5123,
            "count" : 1242,
            "type" : "SCALAR"
        }
    ],
    "bufferViews" : [
        {
            "buffer" : 0,
            "byteLength" : 85116,
            "byteOffset" : 0
        },
        {
            "buffer" : 0,
            "byteLength" : 85116,
            "byteOffset" : 85116
        },
        {
            "buffer" : 0,
            "byteLength" : 56744,
            "byteOffset" : 170232
        },
        {
            "buffer" : 0,
            "byteLength" : 38664,
            "byteOffset" : 226976
        },
        {
            "buffer" : 0,
            "byteLength" : 5712,
            "byteOffset" : 265640
        },
        {
            "buffer" : 0,
            "byteLength" : 5712,
            "byteOffset" : 271352
        },
        {
            "buffer" : 0,
            "byteLength" : 3808,
            "byteOffset" : 277064
        },
        {
            "buffer" : 0,
            "byteLength" : 2112,
            "byteOffset" : 280872
        },
        {
            "buffer" : 0,
            "byteLength" : 59640,
            "byteOffset" : 282984
        },
        {
            "buffer" : 0,
            "byteLength" : 59640,
            "byteOffset" : 342624
        },
        {
            "buffer" : 0,
            "byteLength" : 39760,
            "byteOffset" : 402264
        },
        {
            "buffer" : 0,
            "byteLength" : 27156,
            "byteOffset" : 442024
        },
        {
            "buffer" : 0,
            "byteLength" : 23124,
            "byteOffset" : 469180
        },
        {
            "buffer" : 0,
            "byteLength" : 23124,
            "byteOffset" : 492304
        },
        {
            "buffer" : 0,
            "byteLength" : 15416,
            "byteOffset" : 515428
        },
        {
            "buffer" : 0,
            "byteLength" : 9984,
            "byteOffset" : 530844
        },
        {
            "buffer" : 0,
            "byteLength" : 5460,
            "byteOffset" : 540828
        },
        {
            "buffer" : 0,
            "byteLength" : 5460,
            "byteOffset" : 546288
        },
        {
            "buffer" : 0,
            "byteLength" : 3640,
            "byteOffset" : 551748
        },
        {
            "buffer" : 0,
            "byteLength" : 2484,
            "byteOffset" : 555388
        }
    ],
    "buffers" : [
        {
            "byteLength" : 557872,
            "uri" : "data:application/octet-stream;base64,"
        }
    ]
}
